# xmcd
#
# Track frame offsets:
#	150
#	10771
#	23696
#	35310
#	45464
#	55165
#	65002
#	74927
#	86207
#	97328
#	109244
#	121338
#	131103
#	139791
#	148868
#	161178
#	172487
#	183429
#	195399
#	207724
#	219330
#	230392
#	239982
#	252216
#	263400
#	275400
#	286277
#	296829
#
# Disc length: 4183 seconds
#
# Revision: 1
# Processed by: cddbd v1.5.1PL2 Copyright (c) Steve Scherf et al.
# Submitted via: audiograbber 1.83.01
#
DISCID=c810551c
DTITLE=The socker!  - 6ts super-soul
DYEAR=1900
DGENRE=Blues
TTITLE0=Stu Garden - Drive me
TTITLE1=John Bradley and His swing soul seekers - Everibody's getting soul
TTITLE2=King Earnest - The soul stroke
TTITLE3=Howard Peters - tighten UpThe Slack
TTITLE4=Irene and The scotts - I'm stuck on my baby 
TTITLE5=Peg-Leg Moffett - The socker
TTITLE6=Simtec Simmons and Band - Limber up
TTITLE7=Jimmy mayes and the mill street depot - Monkey Shine
TTITLE8=The royal Kings - let's do the tighten u
TTITLE9=jimmy Fraser - of hopes 6 Dreams and tombstones
TTITLE10=Cash McCall  - I'm in ganger
TTITLE11=Bohanna  - Nightime Lady
TTITLE12=Harvey clark - Do you own thing
TTITLE13=Jimmy dee and the might dee jays - I don't know what's troubling me
TTITLE14=The 4 instant - Discotheque
TTITLE15=Little Hank - I got the feeling
TTITLE16=Stu garden  - Howdo you feel 
TTITLE17=The volcanos  - A lady's man
TTITLE18=Eddie curtis  - Those foxes and pussycats
TTITLE19=Marty lawis  - I can't do without you
TTITLE20=oliver bush - Please come back my love part.1
TTITLE21=oliver bush - Please come back my love part.2
TTITLE22=Tony mason  - Sacram
TTITLE23=George Jackson  - Don't use me 
TTITLE24=Otis bush &The crusaders  - Sock 'em whit a good foot
TTITLE25=James haan and soul entertainers  - it's a fine thing
TTITLE26=Billy nichols  - Shake a leg
TTITLE27=Jonny C and The rocking Champs  - Grrove time
EXTD=
EXTT0=
EXTT1=
EXTT2=
EXTT3=
EXTT4=
EXTT5=
EXTT6=
EXTT7=
EXTT8=
EXTT9=
EXTT10=
EXTT11=
EXTT12=
EXTT13=
EXTT14=
EXTT15=
EXTT16=
EXTT17=
EXTT18=
EXTT19=
EXTT20=
EXTT21=
EXTT22=
EXTT23=
EXTT24=
EXTT25=
EXTT26=
EXTT27=
PLAYORDER=
